Coordinates
version=1
nRows=17
nColumns=24
inDegrees=yes

Units are S.I. units (second, meters, Newtons, ...)
Angles are in degrees.

endheader
time	pelvis_tilt	pelvis_list	pelvis_rotation	pelvis_tx	pelvis_ty	pelvis_tz	hip_flexion_r	hip_adduction_r	hip_rotation_r	knee_angle_r	ankle_angle_r	subtalar_angle_r	mtp_angle_r	hip_flexion_l	hip_adduction_l	hip_rotation_l	knee_angle_l	ankle_angle_l	subtalar_angle_l	mtp_angle_l	lumbar_extension	lumbar_bending	lumbar_rotation
      0.97500000	      4.35211206	     -3.23906012	     -1.54494646	     -0.33878137	      1.08124024	      0.35023760	     -0.22241497	      8.47317244	     -9.59854399	     -5.95697223	     -0.33693001	     -3.31536934	      4.38503112	      7.98041466	     -5.04697228	     -1.20654626	    -58.62448975	     -0.61130201	     -2.22405909	     14.13335538	      1.96336331	      8.18293576	      0.66309136
      0.97916667	      4.34749263	     -3.22756779	     -1.67396413	     -0.33414046	      1.08161807	      0.35078102	     -0.63733287	      8.51316167	     -9.20349214	     -5.67201246	     -0.41153654	     -3.69403040	      4.44232490	      8.44969769	     -4.99558489	     -1.09861628	    -58.18279818	     -0.41441394	     -2.91375801	     13.74982011	      1.90629467	      8.18591690	      1.07087974
      0.98333333	      4.34346708	     -3.22092692	     -1.72373864	     -0.32952162	      1.08196260	      0.35114565	     -1.04126244	      8.55072040	     -9.00199340	     -5.39828236	     -0.36931718	     -3.68730054	      4.45353605	      8.93039672	     -4.92952119	     -0.89410661	    -57.73121474	      0.01699149	     -3.27534762	     13.68124445	      1.88253139	      8.11492799	      1.12890994
      0.98750000	      4.32879680	     -3.19405100	     -1.81697015	     -0.32489587	      1.08228551	      0.35152330	     -1.42855740	      8.55913150	     -8.77958606	     -5.14283091	     -0.32337351	     -3.76428894	      4.46343381	      9.39515298	     -4.84079245	     -0.73778129	    -57.22104032	      0.46982143	     -3.80484273	     13.59797447	      1.86950452	      8.06007667	      1.20296456
      0.99166667	      4.31284461	     -3.16607408	     -1.91712406	     -0.32030028	      1.08258290	      0.35190179	     -1.81287109	      8.56392526	     -8.53969736	     -4.89029144	     -0.28709637	     -3.88666420	      4.47215636	      9.85078044	     -4.75100506	     -0.59372122	    -56.66705538	      0.84157762	     -4.40132432	     13.49979618	      1.84760670	      8.00546532	      1.29546132
      0.99583333	      4.26663531	     -3.12063750	     -2.10419776	     -0.31577209	      1.08282862	      0.35231975	     -2.13688694	      8.53750965	     -8.28216424	     -4.69691391	     -0.27179991	     -4.17026939	      4.48452264	     10.31194418	     -4.64948447	     -0.54909209	    -56.05158003	      1.09940231	     -5.22597695	     13.30365327	      1.78763893	      7.99059764	      1.45329387
      1.00000000	      4.24534468	     -3.10665332	     -2.12602261	     -0.31117488	      1.08304381	      0.35269303	     -2.53175470	      8.57003240	     -8.04005381	     -4.39787825	     -0.24554629	     -4.21581657	      4.49054574	     10.77007558	     -4.57763430	     -0.32794233	    -55.42744201	      1.31849733	     -5.62834242	     13.21393270	      1.81566008	      7.91549920	      1.54719675
      1.00416667	      4.21022869	     -3.06818214	     -2.22985069	     -0.30657664	      1.08324850	      0.35307724	     -2.89344367	      8.55911555	     -7.80324986	     -4.15153973	     -0.20012553	     -4.36461886	      4.49534525	     11.20771728	     -4.48141941	     -0.20488105	    -54.74863606	      1.64175292	     -6.29432847	     13.09167053	      1.82222143	      7.84745617	      1.65677889
      1.00833333	      4.16702537	     -3.03945151	     -2.32369768	     -0.30203322	      1.08339942	      0.35342926	     -3.24287138	      8.55861447	     -7.54991802	     -3.90020361	     -0.16127798	     -4.52523769	      4.49867495	     11.64964007	     -4.39506580	     -0.07310183	    -54.03002258	      1.85139905	     -6.95410848	     12.95498701	      1.82389843	      7.79954614	      1.77131703
      1.01250000	      4.12306497	     -3.00377837	     -2.42478588	     -0.29749684	      1.08353026	      0.35379178	     -3.58687863	      8.54807187	     -7.30828039	     -3.65771336	     -0.12357510	     -4.69928125	      4.50042636	     12.07896239	     -4.30561745	      0.04177745	    -53.26888484	      2.02662163	     -7.63421620	     12.80247832	      1.83247234	      7.73864661	      1.89375286
      1.01666667	      4.07717283	     -2.97216773	     -2.51714184	     -0.29295808	      1.08362586	      0.35413245	     -3.92921437	      8.54007395	     -7.07732427	     -3.41648375	     -0.08527724	     -4.86118054	      4.50076314	     12.49685821	     -4.22011497	      0.16294585	    -52.46759289	      2.16363402	     -8.28936660	     12.64133833	      1.83621310	      7.69604598	      2.01096109
      1.02083333	      3.97671545	     -2.94545498	     -2.66473281	     -0.28853505	      1.08361590	      0.35451827	     -4.19514153	      8.53388732	     -6.76098114	     -3.20206334	     -0.10479007	     -5.19391131	      4.49692189	     12.96710975	     -4.15253532	      0.21884634	    -51.62577754	      1.98309430	     -9.22714831	     12.19174781	      1.77989182	      7.72074338	      2.24603232
      1.02500000	      3.92475573	     -2.90936167	     -2.71276531	     -0.28400150	      1.08364376	      0.35467089	     -4.51473583	      8.50800023	     -6.67302930	     -2.99277222	     -0.05887337	     -5.21437088	      4.49668981	     13.37444142	     -4.04349045	      0.41279459	    -50.75640355	      2.17241354	     -9.41904464	     12.13642770	      1.77122690	      7.70324887	      2.27342744
      1.02916667	      3.87406589	     -2.89865016	     -2.81898640	     -0.27950620	      1.08364016	      0.35510505	     -4.85886027	      8.52732471	     -6.34799717	     -2.73127347	      0.00883312	     -5.45115504	      4.48763567	     13.76386509	     -4.00221072	      0.46254574	    -49.85767507	      2.19902626	    -10.47946846	     11.71289223	      1.77888445	      7.64009524	      2.43029919
      1.03333333	      3.84241856	     -2.86551945	     -2.84086144	     -0.27488228	      1.08364010	      0.35533868	     -5.22144175	      8.51826097	     -6.25358689	     -2.47844562	      0.07041698	     -5.50403883	      4.48465074	     14.11904388	     -3.90956025	      0.62886507	    -48.91695208	      2.38457893	    -10.78657381	     11.60077789	      1.87247257	      7.56867223	      2.48823895
      1.03750000	      3.79229719	     -2.84444766	     -2.89616821	     -0.27032376	      1.08357937	      0.35559186	     -5.55986930	      8.51459068	     -6.06626324	     -2.23582553	      0.15195820	     -5.59986102	      4.47912937	     14.48091687	     -3.83703903	      0.75481338	    -47.94601980	      2.52151021	    -11.38174764	     11.43386890	      1.91329957	      7.50458030	      2.55234698
      1.04166667	      3.73261838	     -2.82309848	     -2.95677167	     -0.26576356	      1.08347986	      0.35583426	     -5.88672442	      8.50959420	     -5.87556421	     -1.99813751	      0.22410417	     -5.73041544	      4.47035130	     14.83982595	     -3.76778934	      0.86248441	    -46.93551550	      2.50213316	    -12.04049847	     11.22805349	      1.95744203	      7.46922797	      2.62385165
